<svg xmlns="http://www.w3.org/2000/svg" width="20.771" height="20.764" viewBox="0 0 20.771 20.764">
  <g id="Grupo_137" data-name="Grupo 137" transform="translate(0 0)">
    <g id="Grupo_136" data-name="Grupo 136">
      <path id="Caminho_41" data-name="Caminho 41" d="M-153.427-70.607l-19.8-19.8a.468.468,0,0,0-.5-.1.468.468,0,0,0-.286.429l0,19.838a.46.46,0,0,0,.46.463h19.843a.464.464,0,0,0,.465-.463A.461.461,0,0,0-153.427-70.607Zm-19.662-.1V-88.961l2.234,2.234-1.111,1.11a.465.465,0,0,0,0,.656.464.464,0,0,0,.328.136.46.46,0,0,0,.326-.136l1.112-1.111,1.98,1.98-1.11,1.111a.463.463,0,0,0,0,.654.459.459,0,0,0,.328.136.455.455,0,0,0,.327-.136l1.111-1.109,1.966,1.966-1.11,1.112a.464.464,0,0,0,0,.655.463.463,0,0,0,.328.136.462.462,0,0,0,.328-.136l1.11-1.111,1.967,1.967-1.112,1.111a.469.469,0,0,0,0,.655.47.47,0,0,0,.331.136.464.464,0,0,0,.327-.137l1.109-1.111,1.968,1.968-1.111,1.11a.462.462,0,0,0,0,.654.457.457,0,0,0,.328.138.452.452,0,0,0,.326-.138l1.111-1.109,1.968,1.967-1.111,1.11a.462.462,0,0,0,0,.656.459.459,0,0,0,.328.134.461.461,0,0,0,.326-.134l1.111-1.111,2.247,2.247Z" transform="translate(174.015 90.541)" fill="#ccc"/>
      <path id="Caminho_42" data-name="Caminho 42" d="M-169.654-79.061a.459.459,0,0,0-.5-.1.463.463,0,0,0-.286.428v6.144a.463.463,0,0,0,.464.464h6.15a.464.464,0,0,0,.465-.464.461.461,0,0,0-.183-.365Zm.138,6.009,0-4.564,4.567,4.565Z" transform="translate(173.722 89.612)" fill="#ccc"/>
    </g>
  </g>
</svg>
