<svg xmlns="http://www.w3.org/2000/svg" width="22.636" height="22.372" viewBox="0 0 22.636 22.372">
  <g id="Grupo_134" data-name="Grupo 134" transform="translate(0 0)">
    <path id="Caminho_30" data-name="Caminho 30" d="M-93.132-79.727A1.432,1.432,0,0,0-94.4-80.793v-9.12l0-.022a.232.232,0,0,1,0-.087l0-.022a2.86,2.86,0,0,0-.842-2.036,2.857,2.857,0,0,0-2.035-.845h0a2.874,2.874,0,0,0-2.87,2.659,1.892,1.892,0,0,0-1.331,1.8.509.509,0,0,0,.508.508h2.769a.509.509,0,0,0,.508-.508A1.9,1.9,0,0,0-99.131-90.3a1.851,1.851,0,0,1,.643-1.172A1.853,1.853,0,0,1-97.13-91.9a1.874,1.874,0,0,1,1.711,1.858l0,.023a.2.2,0,0,1,0,.087l0,.011V-80.8h-18.872a1.432,1.432,0,0,0-1.43,1.43,1.43,1.43,0,0,0,1,1.365,12.392,12.392,0,0,0,1.263,3.442A4.346,4.346,0,0,0-109.676-72h10.547a4.345,4.345,0,0,0,3.776-2.556A12.371,12.371,0,0,0-94.089-78,1.431,1.431,0,0,0-93.132-79.727Zm-2.015,1.791a11.155,11.155,0,0,1-1.118,2.915,3.38,3.38,0,0,1-2.864,2h-10.547a3.38,3.38,0,0,1-2.862-2,11.137,11.137,0,0,1-1.12-2.915Zm.633-.9v-.112h-19.775a.415.415,0,0,1-.294-.121.415.415,0,0,1-.121-.294.415.415,0,0,1,.415-.415h19.775a.415.415,0,0,1,.415.414.413.413,0,0,1-.121.294.41.41,0,0,1-.294.122ZM-98.876-88.97h-1.43a.88.88,0,0,1,1.067-.3A.862.862,0,0,1-98.876-88.97Z" transform="translate(115.721 92.925)" fill="#ccc"/>
    <path id="Caminho_31" data-name="Caminho 31" d="M-107.54-69.663h-1.714a.509.509,0,0,0-.507.509.508.508,0,0,0,.507.507h1.714a.5.5,0,0,0,.359-.149.5.5,0,0,0,.148-.359A.509.509,0,0,0-107.54-69.663Z" transform="translate(115.233 91.019)" fill="#ccc"/>
    <path id="Caminho_32" data-name="Caminho 32" d="M-97.775-69.663h-1.714a.51.51,0,0,0-.508.509.509.509,0,0,0,.508.507h1.714a.508.508,0,0,0,.507-.508A.509.509,0,0,0-97.775-69.663Z" transform="translate(114.433 91.019)" fill="#ccc"/>
    <path id="Caminho_33" data-name="Caminho 33" d="M-113.491-80.309h0a.5.5,0,0,0,.358-.148.505.505,0,0,0,.149-.36,3.031,3.031,0,0,1,.893-2.157,3.028,3.028,0,0,1,2.157-.894h0a3.035,3.035,0,0,1,2.374,1.135,3.048,3.048,0,0,1,.678,1.917.51.51,0,0,0,.508.509h0a.508.508,0,0,0,.508-.509,4.059,4.059,0,0,0-.373-1.7,1.84,1.84,0,0,1,.59-.1,1.8,1.8,0,0,1,1.8,1.8.5.5,0,0,0,.149.359.5.5,0,0,0,.358.15h0a.506.506,0,0,0,.359-.149.505.505,0,0,0,.149-.36,2.823,2.823,0,0,0-2.815-2.815h-.006a2.793,2.793,0,0,0-1.131.241,4.037,4.037,0,0,0-2.653-1.463,4.038,4.038,0,0,0-3,.833,4.043,4.043,0,0,0-1.562,3.2A.507.507,0,0,0-113.491-80.309Z" transform="translate(115.58 92.266)" fill="#ccc"/>
    <path id="Caminho_34" data-name="Caminho 34" d="M-99.058-82.584a.509.509,0,0,0,.508-.507v-3.3a.506.506,0,0,0-.15-.359.5.5,0,0,0-.358-.149h0a.509.509,0,0,0-.507.508v3.3a.506.506,0,0,0,.149.359.506.506,0,0,0,.359.148Z" transform="translate(114.398 92.431)" fill="#ccc"/>
    <path id="Caminho_35" data-name="Caminho 35" d="M-97.335-84.165h0a.508.508,0,0,0,.508-.508v-1.714a.5.5,0,0,0-.15-.359.5.5,0,0,0-.358-.149h0a.509.509,0,0,0-.507.508v1.714a.5.5,0,0,0,.149.359.509.509,0,0,0,.359.149Zm0-.113Z" transform="translate(114.256 92.431)" fill="#ccc"/>
    <path id="Retângulo_89" data-name="Retângulo 89" d="M.508,0h0a.507.507,0,0,1,.507.507V2.221a.508.508,0,0,1-.508.508h0A.507.507,0,0,1,0,2.222V.508A.508.508,0,0,1,.508,0Z" transform="translate(16.413 8.964)" fill="#ccc"/>
  </g>
</svg>
