<svg xmlns="http://www.w3.org/2000/svg" width="56.052" height="44.841" viewBox="0 0 56.052 44.841">
  <path id="Caminho_454" data-name="Caminho 454" d="M36.763,48.877h8.719a1.249,1.249,0,0,0,1.246-1.246V38.912a1.249,1.249,0,0,0-1.246-1.246H36.763a1.249,1.249,0,0,0-1.246,1.246v8.719A1.249,1.249,0,0,0,36.763,48.877Zm1.246-8.719h6.228v6.228H38.008Zm21.8,16.193H52.955V38.127l.3.2a4.615,4.615,0,1,0,5.119-7.679L33.717,14.212a1.242,1.242,0,0,0-1.383,0L23.061,20.39V15.246A1.249,1.249,0,0,0,21.816,14H14.342A1.249,1.249,0,0,0,13.1,15.246v11.79L7.678,30.647a4.617,4.617,0,0,0,.38,7.91,4.668,4.668,0,0,0,2.18.542,4.588,4.588,0,0,0,2.56-.772l.3-.2V56.35H6.246a1.246,1.246,0,1,0,0,2.491H59.806a1.246,1.246,0,1,0,0-2.491ZM15.588,16.491H20.57v5.562l-4.982,3.32Zm13.7,39.859H21.816V40.157h7.474Zm21.175,0H31.78V38.912a1.249,1.249,0,0,0-1.246-1.246H20.57a1.249,1.249,0,0,0-1.246,1.246V56.35H15.588V36.464L33.026,24.837,50.464,36.464ZM33.717,22.308a1.242,1.242,0,0,0-1.383,0L13.644,34.764l-2.23,1.488a2.122,2.122,0,1,1-2.354-3.531L33.026,16.74,56.991,32.721a2.113,2.113,0,0,1,.947,1.763,2.123,2.123,0,0,1-3.3,1.769l-2.23-1.488Z" transform="translate(-5 -14)" fill="#fff"/>
</svg>
