<svg id="Grupo_1323" data-name="Grupo 1323" xmlns="http://www.w3.org/2000/svg" width="16.02" height="13.487" viewBox="0 0 16.02 13.487">
  <path id="Caminho_142" data-name="Caminho 142" d="M12.656,16.445h8.76a2.027,2.027,0,0,0,.7,1.035,1.786,1.786,0,0,0,1.119.391,1.813,1.813,0,0,0,1.511-.811,1.7,1.7,0,0,0,.3-.615h2.561a.551.551,0,0,0,0-1.1H25.042a2.023,2.023,0,0,0-.7-1.036,1.811,1.811,0,0,0-1.4-.354,1.878,1.878,0,0,0-1.229.773,2.228,2.228,0,0,0-.29.617H12.656a.551.551,0,0,0,0,1.1Zm11.385-.551a.843.843,0,0,1-.7.857.748.748,0,0,1-.584-.15l-.01-.008a.748.748,0,0,1-.334-.541.738.738,0,0,1,.153-.624.8.8,0,0,1,.544-.347.879.879,0,0,1,.12-.009.759.759,0,0,1,.475.167.744.744,0,0,1,.333.523Z" transform="translate(-12.122 -13.928)" fill="#e4262b"/>
  <path id="Caminho_143" data-name="Caminho 143" d="M27.607,29.719H23.376a2.018,2.018,0,0,0-.7-1.034,1.908,1.908,0,0,0-1.409-.375,1.863,1.863,0,0,0-1.226.8,3.183,3.183,0,0,0-.283.608h-7.1a.551.551,0,0,0,0,1.1h7.136a2.031,2.031,0,0,0,.7,1.038,1.794,1.794,0,0,0,1.078.357,1.885,1.885,0,0,0,.3-.024,1.814,1.814,0,0,0,1.207-.754,1.707,1.707,0,0,0,.3-.617h4.227a.551.551,0,0,0,0-1.1Zm-5.381,1.1a.805.805,0,0,1-1.134.155.929.929,0,0,1-.341-.573v-.176a.706.706,0,0,1,.155-.384.723.723,0,0,1,.524-.344.825.825,0,0,1,.611.162.74.74,0,0,1,.333.522v.133A.789.789,0,0,1,22.226,30.82Z" transform="translate(-12.122 -18.73)" fill="#e4262b"/>
  <path id="Caminho_144" data-name="Caminho 144" d="M27.607,22.564H18.72a2.022,2.022,0,0,0-.7-1.037,1.814,1.814,0,0,0-1.4-.354,1.875,1.875,0,0,0-1.229.773,2.237,2.237,0,0,0-.29.617H12.656a.551.551,0,0,0,0,1.1h2.437a2.029,2.029,0,0,0,.7,1.037,1.805,1.805,0,0,0,1.084.357,1.935,1.935,0,0,0,1.541-.775v0a1.7,1.7,0,0,0,.3-.617h8.884a.551.551,0,0,0,0-1.1ZM17.567,23.581a.8.8,0,0,1-.545.347.751.751,0,0,1-.583-.15l-.011-.008a.75.75,0,0,1-.334-.541.737.737,0,0,1,.154-.624.8.8,0,0,1,.544-.347.768.768,0,0,1,.595.157.745.745,0,0,1,.332.523v.132A.8.8,0,0,1,17.567,23.581Z" transform="translate(-12.122 -16.341)" fill="#e4262b"/>
</svg>
