<svg xmlns="http://www.w3.org/2000/svg" xmlns:xlink="http://www.w3.org/1999/xlink" width="640.64" height="215.31" viewBox="0 0 640.64 215.31">
  <defs>
    <linearGradient id="linear-gradient" x1="0.012" x2="0.74" y2="1.15" gradientUnits="objectBoundingBox">
      <stop offset="0" stop-color="#ee1c4b"/>
      <stop offset="1" stop-color="#770b68"/>
    </linearGradient>
  </defs>
  <path id="Caminho_309" data-name="Caminho 309" d="M40.88-64.19H25.83l-9.24,11.2h10.5ZM20.23-12.46V-18.9H40.95V-30.8H20.23v-5.74H43.82V-49H3.99V0H44.73V-12.46ZM139.3,0l-.14-49H125.58L110.04-22.89,94.08-49H80.5V0H95.55V-21.56L106.19-4.41h7.28l10.64-17.92L124.25,0Zm48.86,0h17.08L183.82-49H167.58L146.16,0h16.8l3.29-8.54h18.62ZM170.8-20.44l4.76-12.32,4.76,12.32ZM212.1,0h16.52V-49H212.1Zm46.97,1.12c15.19,0,22.82-7.56,22.82-16.52,0-18.06-27.09-13.16-27.09-19.04,0-1.68,1.54-3.08,6.37-3.08a30.23,30.23,0,0,1,13.65,3.64l4.97-11.97c-5.11-2.87-11.9-4.27-18.48-4.27-15.19,0-22.82,7.42-22.82,16.52,0,18.27,27.09,13.3,27.09,19.46,0,1.68-1.68,2.66-6.37,2.66a33.617,33.617,0,0,1-16.17-4.48L237.72-3.92C242.62-.91,250.88,1.12,259.07,1.12Zm96.95-37.66V-49H316.19V0h16.52V-15.68h20.44V-28.14H332.71v-8.4Zm48.86-27.65H389.83l-9.24,11.2h10.5ZM400.4,0h17.08L396.06-49H379.82L358.4,0h16.8l3.29-8.54h18.62ZM383.04-20.44l4.76-12.32,4.76,12.32ZM448.98,1.12c9.59,0,17.15-3.5,21.98-9.8l-10.43-9.31c-2.87,3.64-6.3,5.74-10.71,5.74-6.86,0-11.48-4.76-11.48-12.25s4.62-12.25,11.48-12.25c4.41,0,7.84,2.1,10.71,5.74l10.43-9.31c-4.83-6.3-12.39-9.8-21.98-9.8-15.75,0-27.3,10.57-27.3,25.62S433.23,1.12,448.98,1.12ZM479.92,0h16.52V-49H479.92Zm28.7,0h38.64V-12.81H525.14V-49H508.62ZM29.33,76.12c9.59,0,17.15-3.5,21.98-9.8L40.88,57.01c-2.87,3.64-6.3,5.74-10.71,5.74-6.86,0-11.48-4.76-11.48-12.25s4.62-12.25,11.48-12.25c4.41,0,7.84,2.1,10.71,5.74l10.43-9.31c-4.83-6.3-12.39-9.8-21.98-9.8-15.75,0-27.3,10.57-27.3,25.62S13.58,76.12,29.33,76.12Zm55.58,0c15.96,0,27.65-10.78,27.65-25.62S100.87,24.88,84.91,24.88,57.26,35.66,57.26,50.5,68.95,76.12,84.91,76.12Zm0-13.37c-6.09,0-10.99-4.62-10.99-12.25s4.9-12.25,10.99-12.25S95.9,42.87,95.9,50.5,91,62.75,84.91,62.75ZM154.98,26V48.26L136.36,26H122.78V75h16.1V52.74L157.5,75h13.58V26ZM193.9,75h16.52V38.81h14.35V26H179.55V38.81H193.9Zm73.57,0h17.08L263.13,26H246.89L225.47,75h16.8l3.29-8.54h18.62ZM250.11,54.56l4.76-12.32,4.76,12.32ZM320.74,75h17.64L328.09,59.88c5.88-3.01,9.24-8.33,9.24-15.4C337.33,33.14,328.65,26,315,26H291.41V75h16.52V62.68h4.48Zm-.07-30.52c0,3.57-2.17,5.74-6.72,5.74h-6.02V38.74h6.02C318.5,38.74,320.67,40.91,320.67,44.48ZM398.3,76.12c9.59,0,17.15-3.5,21.98-9.8l-10.43-9.31c-2.87,3.64-6.3,5.74-10.71,5.74-6.86,0-11.48-4.76-11.48-12.25s4.62-12.25,11.48-12.25c4.41,0,7.84,2.1,10.71,5.74l10.43-9.31c-4.83-6.3-12.39-9.8-21.98-9.8-15.75,0-27.3,10.57-27.3,25.62S382.55,76.12,398.3,76.12Zm55.58,0c15.96,0,27.65-10.78,27.65-25.62s-11.69-25.62-27.65-25.62S426.23,35.66,426.23,50.5,437.92,76.12,453.88,76.12Zm0-13.37c-6.09,0-10.99-4.62-10.99-12.25s4.9-12.25,10.99-12.25,10.99,4.62,10.99,12.25S459.97,62.75,453.88,62.75ZM550.55,75l-.14-49H536.83L521.29,52.11,505.33,26H491.75V75H506.8V53.44l10.64,17.15h7.28l10.64-17.92L535.5,75ZM40.67,150H57.75L36.33,101H20.09L-1.33,150h16.8l3.29-8.54H37.38ZM23.31,129.56l4.76-12.32,4.76,12.32Zm82.74,7.98V131.1h20.72V119.2H106.05v-5.74h23.59V101H89.81v49h40.74V137.54ZM190.68,150l-18.06-25.34L189.63,101H171.85l-8.12,12.32L155.4,101H136.85l17.08,24.29L136.22,150h18.83l8.26-13.09L171.78,150Zm29.82-49H196.91v49h16.52V137.96h7.07c13.65,0,22.33-7.14,22.33-18.48S234.15,101,220.5,101Zm-1.05,24.22h-6.02V113.74h6.02c4.55,0,6.72,2.17,6.72,5.74S224,125.22,219.45,125.22Zm49.21,12.32V131.1h20.72V119.2H268.66v-5.74h23.59V101H252.42v49h40.74V137.54ZM333.06,150H350.7l-10.29-15.12c5.88-3.01,9.24-8.33,9.24-15.4,0-11.34-8.68-18.48-22.33-18.48H303.73v49h16.52V137.68h4.48Zm-.07-30.52c0,3.57-2.17,5.74-6.72,5.74h-6.02V113.74h6.02C330.82,113.74,332.99,115.91,332.99,119.48ZM360.08,150H376.6V101H360.08Zm48.65-58.38,5.88,5.39h9.8l-8.96-11.2H402.01l-8.96,11.2h9.8Zm-3.71,45.92V131.1h20.72V119.2H405.02v-5.74h23.59V101H388.78v49h40.74V137.54ZM472.29,101v22.26L453.67,101H440.09v49h16.1V127.74L474.81,150h13.58V101Zm53.62,50.12c9.59,0,17.15-3.5,21.98-9.8l-10.43-9.31c-2.87,3.64-6.3,5.74-10.71,5.74-6.86,0-11.48-4.76-11.48-12.25s4.62-12.25,11.48-12.25c4.41,0,7.84,2.1,10.71,5.74l10.43-9.31c-4.83-6.3-12.39-9.8-21.98-9.8-15.75,0-27.3,10.57-27.3,25.62S510.16,151.12,525.91,151.12ZM556.85,150h16.52V101H556.85Zm65.38,0h17.08l-21.42-49H601.65l-21.42,49h16.8l3.29-8.54h18.62Zm-17.36-20.44,4.76-12.32,4.76,12.32Z" transform="translate(1.33 64.19)" fill="url(#linear-gradient)"/>
</svg>
