<svg xmlns="http://www.w3.org/2000/svg" width="21.287" height="20.125" viewBox="0 0 21.287 20.125">
  <path id="Caminho_82" data-name="Caminho 82" d="M969.217,532.616a5.728,5.728,0,0,0-4.786-2.576h-.008a5.85,5.85,0,0,0-4.922,2.75,5.847,5.847,0,0,0-4.922-2.75,5.733,5.733,0,0,0-5.732,5.733,7.326,7.326,0,0,0,.808,3.053,22.839,22.839,0,0,0,5.35,6.452,56.507,56.507,0,0,0,4.5,3.762,56.151,56.151,0,0,0,4.5-3.762" transform="translate(-948.347 -529.54)" fill="none" stroke="#383838" stroke-width="1"/>
</svg>
