<svg id="Grupo_165" data-name="Grupo 165" xmlns="http://www.w3.org/2000/svg" width="42" height="39.511" viewBox="0 0 42 39.511">
  <path id="Caminho_59" data-name="Caminho 59" d="M-38.286-67.374h-.877v-2.691a4.423,4.423,0,0,0-4.375-4.447H-67.721V-84.757h3.014a.882.882,0,0,0,.88-.882.857.857,0,0,0-.026-.213l-1.733-6.924a.88.88,0,0,0-.852-.666h-4.327a.877.877,0,0,0-.854.667l-1.731,6.923a.882.882,0,0,0,.641,1.069.9.9,0,0,0,.213.026h3.014v10.244h-2.767a4.423,4.423,0,0,0-4.373,4.446v2.693h-.227a1.723,1.723,0,0,0-1.719,1.719v8.249a.881.881,0,0,0,.88.88h1.065v.781a1.822,1.822,0,0,0,1.816,1.814h34.478a1.818,1.818,0,0,0,1.813-1.814v-.781h1.067a.882.882,0,0,0,.88-.88v-8.249A1.723,1.723,0,0,0-38.286-67.374ZM-67.125-91.681l1.291,5.162h-5.533l1.289-5.162Zm26.85,35.155v.78a.056.056,0,0,1-.054.056H-74.805a.055.055,0,0,1-.054-.054v-.781Zm-33.749-9.087v7.326h-2.783v-7.326Zm33.123-1.76h-.25a1.724,1.724,0,0,0-1.72,1.719v1.527H-72.264v-1.527a1.723,1.723,0,0,0-1.719-1.719h-.9v-2.695a2.669,2.669,0,0,1,2.636-2.684h28.708A2.669,2.669,0,0,1-40.9-70.067Zm-1.97,5.006v4.08H-72.264v-4.08Zm4.545-3.246v7.326H-41.11v-7.326Z" transform="translate(78.567 93.441)" fill="#e4262b"/>
  <rect id="Retângulo_97" data-name="Retângulo 97" width="1.635" height="1.636" transform="translate(9.114 21.596)" fill="#e4262b"/>
  <rect id="Retângulo_98" data-name="Retângulo 98" width="1.635" height="1.636" transform="translate(9.114 25.503)" fill="#e4262b"/>
  <rect id="Retângulo_99" data-name="Retângulo 99" width="1.635" height="1.636" transform="translate(31.25 21.596)" fill="#e4262b"/>
  <rect id="Retângulo_100" data-name="Retângulo 100" width="1.635" height="1.636" transform="translate(31.25 25.503)" fill="#e4262b"/>
  <rect id="Retângulo_101" data-name="Retângulo 101" width="1.636" height="1.636" transform="translate(20.182 21.596)" fill="#e4262b"/>
  <rect id="Retângulo_102" data-name="Retângulo 102" width="1.636" height="1.636" transform="translate(20.182 25.503)" fill="#e4262b"/>
  <path id="Caminho_60" data-name="Caminho 60" d="M-67.243-78.729h19.889a.819.819,0,0,0,.817-.817V-92.2a.819.819,0,0,0-.817-.817H-67.243a.819.819,0,0,0-.817.817v12.657A.819.819,0,0,0-67.243-78.729Zm.819-1.635V-91.386h18.253v11.022Z" transform="translate(86.126 93.623)" fill="#e4262b"/>
  <path id="Caminho_61" data-name="Caminho 61" d="M-50.932-91.122H-65.357a.731.731,0,0,0-.75.71v7.426a.731.731,0,0,0,.75.71h14.425a.731.731,0,0,0,.748-.71v-7.426A.731.731,0,0,0-50.932-91.122Zm-.75,1.42V-83.7H-64.609V-89.7Z" transform="translate(86.973 94.447)" fill="#e4262b"/>
</svg>
