<?xml version="1.0" encoding="utf-8"?>
<!-- Generator: Adobe Illustrator 25.0.1, SVG Export Plug-In . SVG Version: 6.00 Build 0)  -->
<svg version="1.1" id="Layer_1" xmlns="http://www.w3.org/2000/svg" xmlns:xlink="http://www.w3.org/1999/xlink" x="0px" y="0px"
	 viewBox="0 0 234.5 114" style="enable-background:new 0 0 234.5 114;" xml:space="preserve">
<style type="text/css">
	.st0{fill:#E4262B;}
</style>
<g>
	<rect x="22.2" y="98.2" class="st0" width="1.2" height="15.6"/>
	<polygon class="st0" points="42.8,105.4 48.7,98.2 49.9,98.2 49.9,113.8 48.7,113.8 48.7,100 42.8,107.2 36.8,100 36.8,113.8 
		35.6,113.8 35.6,98.2 36.8,98.2 	"/>
	<path class="st0" d="M69.8,112.9c1.9,0,3.6-0.7,4.9-2c1.3-1.3,2-3,2-4.9c0-1.9-0.7-3.6-2-4.9c-1.3-1.3-3-2-4.9-2c-2,0-3.6,0.7-5,2
		c-1.3,1.3-2,3-2,4.9c0,1.9,0.7,3.6,2,4.9C66.2,112.2,67.9,112.9,69.8,112.9 M69.8,98c2.3,0,4.3,0.8,5.9,2.3
		c1.6,1.6,2.4,3.4,2.4,5.7c0,2.2-0.8,4.1-2.4,5.7c-1.6,1.5-3.6,2.3-5.9,2.3c-2.3,0-4.2-0.8-5.8-2.3c-1.6-1.6-2.4-3.4-2.4-5.7
		c0-2.2,0.8-4.1,2.4-5.7C65.5,98.8,67.5,98,69.8,98"/>
	<path class="st0" d="M90.9,106.4v6.4h3.2c1.3,0,2.3-0.3,3-0.9c0.7-0.6,1-1.3,1-2.3c0-2.1-1.5-3.2-4.6-3.2H90.9 M90.9,99.2v6.2h1.7
		c2.8,0,4.2-1,4.2-3.1c0-2.1-1.4-3.1-4.3-3.1H90.9z M89.7,98.2H93c1.7,0,3,0.4,3.9,1.1c0.9,0.7,1.3,1.7,1.3,3c0,1.5-0.7,2.7-2.2,3.5
		c2.4,0.5,3.6,1.8,3.6,3.9c0,1.3-0.5,2.3-1.4,3c-0.9,0.7-2.2,1.1-3.8,1.1h-4.6V98.2z"/>
	<rect x="110.5" y="98.2" class="st0" width="1.2" height="15.6"/>
	<polygon class="st0" points="125.1,98.2 125.1,112.8 132.9,112.8 132.9,113.8 123.9,113.8 123.9,98.2 	"/>
	<rect x="143.3" y="98.2" class="st0" width="1.2" height="15.6"/>
	<path class="st0" d="M165.8,93.3l-3.5,3.6h-0.8l2.4-3.6H165.8z M165.9,107.4l-3.4-7.3l-3.3,7.3H165.9z M162.9,98.1l7.2,15.7h-1.3
		l-2.5-5.4h-7.6l-2.5,5.4h-1.3l7.2-15.7H162.9z"/>
	<path class="st0" d="M181.9,99.2v6.1h2.6c1.3,0,2.3-0.3,3-0.8c0.7-0.5,1-1.3,1-2.3c0-1-0.4-1.7-1.1-2.3c-0.7-0.5-1.7-0.8-3.1-0.8
		H181.9 M180.7,98.2l4,0c1.7,0,2.9,0.4,3.8,1.1c0.9,0.7,1.3,1.7,1.3,2.9c0,1.8-1,3.1-3,3.8c0.5,0.2,1.2,1,2.1,2.4l3.5,5.4h-1.4
		l-2.7-4.3c-0.9-1.4-1.6-2.3-2.1-2.7c-0.5-0.3-1.2-0.5-2.2-0.5h-2.1v7.5h-1.2V98.2z"/>
	<rect x="202.5" y="98.2" class="st0" width="1.2" height="15.6"/>
	<path class="st0" d="M225.1,107.4l-3.4-7.3l-3.3,7.3H225.1z M222.1,98.1l7.2,15.7H228l-2.5-5.4h-7.6l-2.5,5.4h-1.3l7.2-15.7H222.1z
		"/>
	<path class="st0" d="M153.5,61.8h-12.3c-8,0-9.9,2.4-9.9,8.1c0,5.2,2.1,9.1,4.2,9.1c4.7,0,14.6-6.1,17.9-11.1V61.8 M167.1,87.5
		l-7.4,1.8l-2.2-0.8c-0.9-3-2.4-7.4-3.3-12.1c-2.7,4.1-12.9,12.2-22.1,12.2c-6.5,0-12.8-7.7-12.8-17.9c0-12.5,6.5-16.7,22.5-16.7
		h11.8v-6.5c0-8.1-2.6-10.8-9.4-10.8c-8.2,0-14.1,1.4-17.8,2.2l-1.7-1.6v-6.3l1.4-1.5c4.2-1.3,11.1-2.4,19.5-2.4
		c13,0,19.3,5.2,19.3,18.7v26.5c1.1,5.4,2.3,9.3,3.6,13L167.1,87.5z"/>
	<path class="st0" d="M214.7,89.5c-6.6,0-11.4-0.8-16.3-2.4l-1.4-1.6v-6l1.9-1.4c4.8,1.1,10.3,2.2,15.6,2.2c4.6,0,9-2.7,9-7.8
		c0-11-26.4-8.5-26.4-28.2c0-11.4,8.2-17.1,19.2-17.1c5.6,0,9.7,0.7,14.2,2.5l1.2,1.5v6l-1.6,1.5c-4.2-1.1-8.6-2.3-13.1-2.3
		c-5.5,0-9,2.6-9,7.3c0,11.7,26.5,9.2,26.5,28.5C234.5,83.8,226.3,89.5,214.7,89.5"/>
	<polygon class="st0" points="55.7,10.5 34.6,10.5 34.6,85.7 32.8,87.5 24.6,87.5 22.7,85.7 22.7,10.5 1.7,10.5 0,8.6 0,1.9 
		1.7,0.1 55.7,0.1 57.6,1.9 57.6,8.6 	"/>
	<path class="st0" d="M111,87.6h-8.8l-1.9-1.7V46.2c0-7.9-1.5-12-6.7-12c-5.2,0-16.2,6.1-19.7,11v40.7l-2,1.7h-8.5l-2-1.7V1.8l2-1.8
		h8.5l2,1.8v30.6L72.8,36c3.2-3.3,14.8-11.6,24.7-11.6c11.8,0,15.5,7.8,15.5,20.8v40.6L111,87.6"/>
	<polygon class="st0" points="185.3,88.1 176.8,88.1 174.8,86.1 174.8,29 176.8,27 185.3,27 187.2,29 187.2,86.1 	"/>
	<polygon class="st0" points="193.5,19.8 177.6,24.9 175.9,24.1 174.7,20.9 175.4,19.1 190.6,11.9 192.4,12.7 194.2,18.1 	"/>
	<path class="st0" d="M19.5,49.2H17v3.7h-1l-6.6-3.8v-1H16v-0.9h1v0.9h2.6V49.2z M16,51.9v-2.7l-5.2-0.1L16,51.9z"/>
	<path class="st0" d="M14.5,59.9c-1.9,0-3.2-0.2-4-0.6c-0.8-0.4-1.2-1.1-1.2-2.1c0-0.5,0.1-0.9,0.3-1.3c0.2-0.4,0.6-0.7,1-0.9
		c0.4-0.2,0.8-0.3,1.4-0.4c0.6-0.1,1.4-0.1,2.4-0.1c1.9,0,3.2,0.2,4,0.6c0.8,0.4,1.2,1.1,1.2,2.1c0,1-0.4,1.7-1.2,2.1
		C17.8,59.7,16.5,59.9,14.5,59.9 M14.5,58.7c1.6,0,2.8-0.1,3.4-0.4c0.6-0.2,0.9-0.6,0.9-1.2c0-0.6-0.3-1-0.8-1.2
		c-0.5-0.2-1.7-0.3-3.4-0.3c-1.6,0-2.7,0.1-3.3,0.3c-0.6,0.2-0.9,0.6-0.9,1.2c0,0.6,0.3,1,0.8,1.2C11.7,58.6,12.8,58.7,14.5,58.7"/>
	<path class="st0" d="M19.5,65c-1.7-0.2-3.3-0.6-4.8-1.2c-1.5-0.6-2.9-1.4-4.1-2.3V66H9.5v-5.5h1c1.3,1,2.7,1.7,4.2,2.3
		c1.5,0.6,3.1,0.9,4.8,1V65"/>
	<path class="st0" d="M19.5,67.5h-7.4v2.1h-0.9v-0.1c0-0.7-0.2-1.3-0.5-1.6c-0.3-0.4-0.8-0.6-1.4-0.6v-0.9h10.2V67.5"/>
	<path class="st0" d="M16.4,72.8h-1.2v-3.2h1.2V72.8z M16.4,78.8v-1.1h1c0.5,0,0.8-0.1,1.1-0.3c0.2-0.2,0.4-0.5,0.4-0.9
		c0-0.5-0.1-0.8-0.4-0.9c-0.3-0.2-0.9-0.3-1.9-0.3H9.4v-1.1h7.9c0.8,0,1.5,0.2,1.9,0.6c0.4,0.4,0.6,1,0.6,1.8c0,0.7-0.2,1.3-0.6,1.6
		c-0.4,0.4-1.1,0.6-1.9,0.6H16.4z"/>
	<path class="st0" d="M15.8,80.5v-1.1c1.3,0,2.3,0.3,2.9,0.8c0.7,0.5,1,1.3,1,2.2c0,1-0.4,1.8-1.3,2.3c-0.9,0.5-2.2,0.8-4,0.8
		c-1.9,0-3.2-0.2-4.1-0.7s-1.3-1.3-1.3-2.4c0-0.9,0.3-1.6,0.8-2.1c0.5-0.5,1.3-0.8,2.3-0.8h0.1v1.1c-0.7,0-1.2,0.2-1.6,0.5
		c-0.4,0.3-0.6,0.8-0.6,1.3c0,0.7,0.3,1.2,1,1.5c0.7,0.3,1.8,0.5,3.3,0.5c1.5,0,2.6-0.2,3.2-0.5c0.6-0.3,1-0.8,1-1.5
		c0-0.6-0.2-1-0.7-1.3c-0.5-0.3-1.1-0.5-2-0.5H15.8"/>
</g>
</svg>
