<svg xmlns="http://www.w3.org/2000/svg" xmlns:xlink="http://www.w3.org/1999/xlink" width="90.893" height="55.522" viewBox="0 0 90.893 55.522">
  <defs>
    <linearGradient id="linear-gradient" y1="0.5" x2="1" y2="0.5" gradientUnits="objectBoundingBox">
      <stop offset="0" stop-color="#ee1c4b"/>
      <stop offset="0.998" stop-color="#770b68"/>
    </linearGradient>
  </defs>
  <g id="Grupo_1633" data-name="Grupo 1633" transform="translate(-502 -2544)">
    <g id="Grupo_1632" data-name="Grupo 1632">
      <g id="Grupo_1631" data-name="Grupo 1631" transform="translate(153.088 1981.049)">
        <path id="Caminho_530" data-name="Caminho 530" d="M369.027,581.341h-5.977v-5.977h-7.16v5.977h-5.977v7.16h5.977v5.977h7.16V588.5h5.977Z" fill="none" stroke="#8944a7" stroke-linecap="round" stroke-linejoin="round" stroke-width="2"/>
      </g>
      <path id="Caminho_344" data-name="Caminho 344" d="M408.175,599.48h-5.548v7.155H388.975V599.48H367.34v-8.945l17.7-25.631h14.428l-15.736,23.668h5.663V582.2h13.232v6.378h5.548Zm10.725,8.107a18.48,18.48,0,0,1-9.8-2.593,17.613,17.613,0,0,1-6.676-7.51,29.623,29.623,0,0,1,0-23.426,17.619,17.619,0,0,1,6.676-7.51,19.835,19.835,0,0,1,19.61,0,17.613,17.613,0,0,1,6.676,7.51,29.623,29.623,0,0,1,0,23.426,17.607,17.607,0,0,1-6.676,7.51A18.475,18.475,0,0,1,418.9,607.587Zm0-11.266q4.77,0,4.769-10.55t-4.769-10.55q-4.768,0-4.769,10.55T418.9,596.321Z" transform="translate(154.088 1981.049)" fill="none" stroke="#8944a7" stroke-linecap="round" stroke-linejoin="round" stroke-width="2"/>
    </g>
    <path id="Caminho_345" data-name="Caminho 345" d="M7.965-15.039A8.944,8.944,0,0,1,13.9-13.3q2.052,1.742,2.052,5.36V0h-5.67V-1.944Q9.234.27,6.1.27A6.679,6.679,0,0,1,3.118-.338,4.4,4.4,0,0,1,1.256-1.985,4.393,4.393,0,0,1,.621-4.32,3.757,3.757,0,0,1,2.3-7.641,9.136,9.136,0,0,1,7.371-8.775H9.828Q9.531-10.5,7.047-10.5a6.966,6.966,0,0,0-2.025.311,5.691,5.691,0,0,0-1.755.851L1.323-13.365a10.736,10.736,0,0,1,3.064-1.228A14.809,14.809,0,0,1,7.965-15.039ZM7.938-3.4A2.008,2.008,0,0,0,9.1-3.753a2.03,2.03,0,0,0,.756-1.053V-5.832H8.343Q6.48-5.832,6.48-4.59a1.075,1.075,0,0,0,.391.851A1.579,1.579,0,0,0,7.938-3.4ZM27.783-15.039a5.958,5.958,0,0,1,4.388,1.647,6.717,6.717,0,0,1,1.66,4.968V0h-6.1V-7.371q0-2.538-1.809-2.538a2.114,2.114,0,0,0-1.66.716,3.339,3.339,0,0,0-.635,2.254V0h-6.1V-14.769h5.8v1.458a5.631,5.631,0,0,1,2-1.3A6.845,6.845,0,0,1,27.783-15.039ZM43.47.27a9.68,9.68,0,0,1-4.415-.985,7.584,7.584,0,0,1-3.064-2.727A7.215,7.215,0,0,1,34.884-7.4a7.215,7.215,0,0,1,1.107-3.956,7.49,7.49,0,0,1,3.064-2.714,9.792,9.792,0,0,1,4.415-.972,9.854,9.854,0,0,1,4.441.972,7.4,7.4,0,0,1,3.051,2.714A7.282,7.282,0,0,1,52.056-7.4a7.282,7.282,0,0,1-1.093,3.955A7.488,7.488,0,0,1,47.911-.715,9.741,9.741,0,0,1,43.47.27Zm0-4.752a2.2,2.2,0,0,0,1.728-.77A3.147,3.147,0,0,0,45.873-7.4,3.1,3.1,0,0,0,45.2-9.531a2.212,2.212,0,0,0-1.728-.756,2.212,2.212,0,0,0-1.728.756A3.1,3.1,0,0,0,41.067-7.4a3.147,3.147,0,0,0,.675,2.146A2.2,2.2,0,0,0,43.47-4.482ZM58.671.27a17.246,17.246,0,0,1-3.726-.4,10.677,10.677,0,0,1-2.97-1.053l1.674-4.023a8.787,8.787,0,0,0,2.43.972,11.227,11.227,0,0,0,2.727.351,4.251,4.251,0,0,0,1.472-.176A.569.569,0,0,0,60.7-4.59q0-.351-.527-.486a14.132,14.132,0,0,0-1.715-.27A22.605,22.605,0,0,1,55.377-5.9a4.827,4.827,0,0,1-2.228-1.309,3.8,3.8,0,0,1-.958-2.781,4.123,4.123,0,0,1,.864-2.565,5.822,5.822,0,0,1,2.578-1.809,11.242,11.242,0,0,1,4.118-.675,17.248,17.248,0,0,1,3.281.311,9.993,9.993,0,0,1,2.741.9L64.1-9.8a8.637,8.637,0,0,0-4.266-1.08q-2,0-2,.7,0,.351.54.5a12.5,12.5,0,0,0,1.7.284,20.688,20.688,0,0,1,3.064.567,4.938,4.938,0,0,1,2.214,1.323,3.8,3.8,0,0,1,.958,2.781,4.047,4.047,0,0,1-.864,2.511A5.818,5.818,0,0,1,62.856-.405,11.522,11.522,0,0,1,58.671.27Z" transform="translate(525.379 2599.252)" fill="url(#linear-gradient)"/>
  </g>
</svg>
