<?xml version="1.0" encoding="utf-8"?>
<!-- Generator: Adobe Illustrator 25.0.1, SVG Export Plug-In . SVG Version: 6.00 Build 0)  -->
<svg version="1.1" id="Layer_1" xmlns="http://www.w3.org/2000/svg" xmlns:xlink="http://www.w3.org/1999/xlink" x="0px" y="0px"
	 viewBox="0 0 64.3 42.6" style="enable-background:new 0 0 64.3 42.6;" xml:space="preserve">
<style type="text/css">
	.st0{fill:#4D4D4D;}
	.st1{fill:#D50000;}
	.st2{fill:#FFFFFF;}
</style>
<g>
	<g>
		<path class="st0" d="M16.7,17.3v8.4h-2.3l-3.2-3.8v3.8H8.4v-8.4h2.3l3.2,3.8v-3.8H16.7z"/>
		<path class="st0" d="M20,25.4c-0.7-0.4-1.3-0.9-1.7-1.6s-0.6-1.4-0.6-2.3c0-0.8,0.2-1.6,0.6-2.3c0.4-0.7,1-1.2,1.7-1.6
			c0.7-0.4,1.5-0.6,2.4-0.6c0.9,0,1.7,0.2,2.4,0.6c0.7,0.4,1.3,0.9,1.7,1.6c0.4,0.7,0.6,1.4,0.6,2.3c0,0.8-0.2,1.6-0.6,2.3
			c-0.4,0.7-1,1.2-1.7,1.6s-1.5,0.6-2.4,0.6C21.5,25.9,20.7,25.7,20,25.4z M23.4,23.4c0.3-0.2,0.5-0.4,0.7-0.7
			c0.2-0.3,0.3-0.7,0.3-1.1c0-0.4-0.1-0.8-0.3-1.1c-0.2-0.3-0.4-0.6-0.7-0.7c-0.3-0.2-0.6-0.3-1-0.3c-0.4,0-0.7,0.1-1,0.3
			c-0.3,0.2-0.5,0.4-0.7,0.7c-0.2,0.3-0.3,0.7-0.3,1.1c0,0.4,0.1,0.8,0.3,1.1c0.2,0.3,0.4,0.6,0.7,0.7c0.3,0.2,0.6,0.3,1,0.3
			C22.8,23.6,23.1,23.5,23.4,23.4z"/>
		<path class="st0" d="M36.9,17.3l-3.6,8.4h-2.8L27,17.3h3.1l2,4.9l2.1-4.9H36.9z"/>
		<path class="st0" d="M39.1,25.4c-0.7-0.4-1.3-0.9-1.7-1.6s-0.6-1.4-0.6-2.3c0-0.8,0.2-1.6,0.6-2.3c0.4-0.7,1-1.2,1.7-1.6
			c0.7-0.4,1.5-0.6,2.4-0.6c0.9,0,1.7,0.2,2.4,0.6c0.7,0.4,1.3,0.9,1.7,1.6c0.4,0.7,0.6,1.4,0.6,2.3c0,0.8-0.2,1.6-0.6,2.3
			c-0.4,0.7-1,1.2-1.7,1.6s-1.5,0.6-2.4,0.6C40.6,25.9,39.8,25.7,39.1,25.4z M42.5,23.4c0.3-0.2,0.5-0.4,0.7-0.7
			c0.2-0.3,0.3-0.7,0.3-1.1c0-0.4-0.1-0.8-0.3-1.1c-0.2-0.3-0.4-0.6-0.7-0.7c-0.3-0.2-0.6-0.3-1-0.3c-0.4,0-0.7,0.1-1,0.3
			c-0.3,0.2-0.5,0.4-0.7,0.7c-0.2,0.3-0.3,0.7-0.3,1.1c0,0.4,0.1,0.8,0.3,1.1c0.2,0.3,0.4,0.6,0.7,0.7c0.3,0.2,0.6,0.3,1,0.3
			C41.9,23.6,42.2,23.5,42.5,23.4z"/>
		<path class="st0" d="M13,35.8c-0.7-0.2-1.2-0.4-1.6-0.6l0.9-2.1c0.4,0.2,0.9,0.4,1.3,0.6s1,0.2,1.4,0.2c0.4,0,0.7,0,0.8-0.1
			c0.2-0.1,0.3-0.2,0.3-0.3c0-0.2-0.1-0.3-0.3-0.4c-0.2-0.1-0.6-0.2-1.1-0.3c-0.7-0.1-1.2-0.3-1.6-0.4c-0.4-0.2-0.8-0.4-1.1-0.8
			c-0.3-0.4-0.5-0.8-0.5-1.5c0-0.5,0.1-1,0.4-1.4c0.3-0.4,0.7-0.8,1.3-1c0.6-0.2,1.3-0.4,2.1-0.4c0.6,0,1.1,0.1,1.7,0.2
			s1,0.3,1.5,0.5L17.8,30c-0.8-0.4-1.6-0.6-2.3-0.6c-0.7,0-1.1,0.2-1.1,0.5c0,0.2,0.1,0.3,0.3,0.4c0.2,0.1,0.6,0.2,1.1,0.3
			c0.6,0.1,1.2,0.3,1.6,0.4c0.4,0.2,0.8,0.4,1.1,0.8c0.3,0.4,0.5,0.8,0.5,1.4c0,0.5-0.1,1-0.4,1.4c-0.3,0.4-0.7,0.8-1.3,1
			C16.6,35.9,15.9,36,15,36C14.3,36,13.7,36,13,35.8z"/>
		<path class="st0" d="M19.8,27.4h2.8v8.4h-2.8V27.4z"/>
		<path class="st0" d="M25.8,29.6h-2.5v-2.2h7.8v2.2h-2.5v6.2h-2.8V29.6z"/>
		<path class="st0" d="M38.9,33.7v2.1h-7v-8.4h6.8v2.1h-4.1v1h3.6v2h-3.6v1.1H38.9z"/>
		<path class="st0" d="M39.6,27.4h3.2l-0.5,5.2h-2.2L39.6,27.4z M40,35.5c-0.3-0.3-0.4-0.6-0.4-1c0-0.4,0.1-0.7,0.4-1
			s0.7-0.4,1.1-0.4c0.5,0,0.8,0.1,1.1,0.4s0.4,0.6,0.4,1c0,0.4-0.1,0.7-0.4,1C42,35.8,41.7,36,41.2,36C40.7,36,40.3,35.8,40,35.5z"
			/>
	</g>
	<g>
		<g>
			<g>
				<path class="st0" d="M52.8,3.8H3.4C1.5,3.8,0,5.3,0,7.2v31.9c0,1.9,1.5,3.4,3.4,3.4h49.4c1.9,0,3.4-1.5,3.4-3.4V7.2
					C56.2,5.3,54.7,3.8,52.8,3.8z M1.8,7.2c0-0.9,0.7-1.6,1.6-1.6h49.4c0.9,0,1.6,0.7,1.6,1.6v3.7H1.8V7.2z M54.4,39.1
					c0,0.9-0.7,1.6-1.6,1.6H3.4c-0.9,0-1.6-0.7-1.6-1.6V12.7h52.6V39.1z"/>
			</g>
			<g>
				<circle class="st0" cx="5.2" cy="8.3" r="0.9"/>
			</g>
			<g>
				<circle class="st0" cx="8.4" cy="8.3" r="0.9"/>
			</g>
			<g>
				<circle class="st0" cx="11.6" cy="8.3" r="0.9"/>
			</g>
		</g>
	</g>
	<polygon class="st1" points="53.9,1.8 56.1,0 57.4,2.5 60.1,1.8 60.2,4.5 62.9,5 61.9,7.6 64.3,9.1 62.3,11.1 63.8,13.4 61.2,14.4 
		61.7,17.1 58.9,17 58.2,19.7 55.7,18.4 53.9,20.6 52.2,18.4 49.7,19.7 49,17 46.2,17.1 46.7,14.4 44,13.4 45.6,11.1 43.6,9.1 
		45.9,7.6 44.9,5 47.7,4.5 47.8,1.8 50.5,2.5 51.8,0 	"/>
	<g>
		<path class="st2" d="M53,15.3c-0.3-0.2-0.4-0.6-0.4-0.9c0-0.4,0.1-0.7,0.4-0.9c0.3-0.2,0.6-0.4,1-0.4s0.7,0.1,1,0.4
			c0.3,0.2,0.4,0.5,0.4,0.9c0,0.4-0.1,0.7-0.4,0.9c-0.3,0.2-0.6,0.4-1,0.4C53.6,15.6,53.2,15.5,53,15.3z M52.6,5.6h2.6l-0.4,6.5
			h-1.8L52.6,5.6z"/>
	</g>
</g>
</svg>
