<svg xmlns="http://www.w3.org/2000/svg" width="29.414" height="19.483" viewBox="0 0 29.414 19.483">
  <path id="Caminho_43" data-name="Caminho 43" d="M-187.484-73.262a.491.491,0,0,0,.49-.49v-4.782a.491.491,0,0,0-.49-.49h-.53v-6.923a3.9,3.9,0,0,0-3.9-3.9h-19.53a3.9,3.9,0,0,0-3.9,3.9v6.923h-.53a.491.491,0,0,0-.489.49v4.782a.491.491,0,0,0,.489.49h1.98v1.922h-2.522v.979H-187.1v-.979h-2.365v-1.922Zm-2.959,0v1.922h-.981v-1.922Zm-1.96,0v1.922h-18.543v-1.922Zm-19.523,0v1.922h-.98v-1.922Zm18.352-9.131.524-.524a.871.871,0,0,0,0-1.228l-3.218-3.218a.869.869,0,0,0-1.228,0l-3.217,3.217a.869.869,0,0,0,0,1.228l.522.522h-3.046l.6-.6a.863.863,0,0,0,.253-.614.865.865,0,0,0-.253-.614l-3.218-3.217a.86.86,0,0,0-.614-.254.862.862,0,0,0-.614.254l-3.217,3.217a.868.868,0,0,0,0,1.227l.6.6c-2.075.034-3.749,1.287-3.749,2.824v.547h-.909v-6.924a2.92,2.92,0,0,1,2.917-2.917h19.53a2.921,2.921,0,0,1,2.918,2.917v6.923h-.91v-.547C-189.9-81.088-191.534-82.33-193.574-82.393Zm-18.9,2.821c0-1,1.307-1.844,2.854-1.844h5.306l.047.046.046-.046h10.481c1.547,0,2.853.845,2.853,1.844v.547h-21.587Zm9.061-4.038-1.214,1.214h-3.693l-1.214-1.214,3.06-3.061Zm6.527-2.983,3.061,3.061-1.136,1.136H-198.8l-1.137-1.137Zm-18.495,10.626v-2.079h27.4v2.079Zm27.4.98v.745h-27.4v-.745Z" transform="translate(216.408 89.844)" fill="#ccc"/>
</svg>
