<svg xmlns="http://www.w3.org/2000/svg" width="349.979" height="136.346" viewBox="0 0 349.979 136.346">
  <path id="Caminho_412" data-name="Caminho 412" d="M1134.33,807.871l.174-133.824-4.778,3.417-6.565-5.94-6.565,5.938-6.565-5.938-6.565,5.938-6.565-5.938-6.566,5.94-6.564-5.94-6.565,5.938-6.565-5.938-6.566,5.94-6.564-5.94-6.565,5.938-6.565-5.938-6.577,5.943-6.565-5.94-6.565,5.938-6.57-5.941-6.565,5.94-6.565-5.94-6.57,5.943-6.565-5.938-6.565,5.938-6.565-5.938-6.566,5.94-6.564-5.94L959,677.467l-6.565-5.938-6.565,5.94-6.565-5.94-6.565,5.938-6.565-5.938-6.575,5.938-6.565-5.94-6.565,5.938-6.565-5.938-6.564,5.94-6.566-5.94-6.565,5.938-6.565-5.938-6.565,5.938-6.565-5.938-6.565,5.94-6.565-5.94-6.565,5.938-6.565-5.938-6.567,5.94-6.564-5.94-6.565,5.938L808,671.527l-6.565,5.94-6.565-5.94-6.564,5.94-3.779-3.419.687,133.822Z" transform="translate(-784.524 -671.524)" fill="#740024"/>
</svg>
