<svg xmlns="http://www.w3.org/2000/svg" width="351.001" height="362.645">
  <path id="Caminho_62" data-name="Caminho 62" d="M42.982-133.3l6.58-4.29,6.582,4.29,6.582-4.29,6.582,4.29,6.582-4.29,6.58,4.29,6.582-4.29,6.582,4.29,6.582-4.29,6.58,4.29,6.582-4.29,6.582,4.29,6.582-4.29,6.582,4.29,6.58-4.29,6.582,4.29,6.582-4.29,6.582,4.29,6.58-4.29,6.582,4.29,6.582-4.29,6.582,4.29,6.582-4.29,6.58,4.29,6.582-4.29,6.582,4.29,6.582-4.29,6.58,4.29,6.582-4.29,6.582,4.29,6.582-4.29,6.582,4.29,6.58-4.29,6.582,4.29,6.582-4.29,6.582,4.29,6.58-4.29,6.582,4.29,6.582-4.29,6.582,4.29,6.582-4.29,6.58,4.29,6.582-4.29,6.582,4.29,6.582-4.29,6.58,4.29,6.582-4.29,6.582,4.29,6.582-4.29,6.582,4.29,6.58-4.29,6.582,4.29L389-135.771l-.2-346.208c0-7.11-7.05-12.874-15.746-12.874H54.744c-8.7,0-15.746,5.764-15.746,12.874l.2,346.208Z" transform="translate(-38.498 495.352)" fill="#fff" stroke="#d0d0d0" stroke-width="1"/>
</svg>
