<svg xmlns="http://www.w3.org/2000/svg" width="22.355" height="19.287" viewBox="0 0 22.355 19.287">
  <g id="Grupo_135" data-name="Grupo 135" transform="translate(0 0)">
    <path id="Caminho_36" data-name="Caminho 36" d="M-124.83-81.186l-1.58-2.463,1.255-1.255a.449.449,0,0,0,0-.65.449.449,0,0,0-.651,0l-1.023,1.022-1.022-3.3a2.473,2.473,0,0,0-2.37-1.905h-10.968a2.4,2.4,0,0,0-2.37,1.858l-1.069,3.346-1.023-1.022a.449.449,0,0,0-.651,0,.449.449,0,0,0,0,.65l1.3,1.255-1.58,2.51a2.152,2.152,0,0,0-.279,1.069v5.531a1.151,1.151,0,0,0,1.162,1.162h.557v1.533a1.369,1.369,0,0,0,1.395,1.395h1.58a1.37,1.37,0,0,0,1.395-1.395v-1.533h10.178v1.533A1.369,1.369,0,0,0-129.2-70.45h1.58a1.369,1.369,0,0,0,1.394-1.395v-1.533h.558A1.151,1.151,0,0,0-124.5-74.54v-5.531A3.383,3.383,0,0,0-124.83-81.186Zm-19.334-2.045h16.917l1.44,2.324h-19.845Zm1.487-4.415a1.5,1.5,0,0,1,1.487-1.162h10.968a1.529,1.529,0,0,1,1.487,1.208l1.069,3.486h-16.08Zm.976,15.8a.439.439,0,0,1-.465.465h-1.58a.44.44,0,0,1-.465-.465v-1.533h2.51Zm14.5,0a.439.439,0,0,1-.465.465h-1.58a.439.439,0,0,1-.465-.465v-1.533h2.509Zm1.487-2.509H-145.7a.22.22,0,0,1-.233-.232v-5.392h20.449v5.392A.22.22,0,0,1-125.713-74.354Z" transform="translate(146.859 89.737)" fill="#ccc"/>
    <path id="Caminho_37" data-name="Caminho 37" d="M-127.2-78.3a2.083,2.083,0,0,0-2.091,2.091,2.083,2.083,0,0,0,2.091,2.091,2.082,2.082,0,0,0,2.091-2.091A2.112,2.112,0,0,0-127.2-78.3Zm0,3.3a1.15,1.15,0,0,1-1.161-1.162,1.15,1.15,0,0,1,1.161-1.162,1.151,1.151,0,0,1,1.162,1.162A1.151,1.151,0,0,1-127.2-75Z" transform="translate(145.42 88.8)" fill="#ccc"/>
    <path id="Caminho_38" data-name="Caminho 38" d="M-142.591-78.3a2.083,2.083,0,0,0-2.091,2.091,2.082,2.082,0,0,0,2.091,2.091,2.083,2.083,0,0,0,2.091-2.091A2.083,2.083,0,0,0-142.591-78.3Zm0,3.3a1.151,1.151,0,0,1-1.162-1.162,1.151,1.151,0,0,1,1.162-1.162,1.151,1.151,0,0,1,1.161,1.162A1.151,1.151,0,0,1-142.591-75Z" transform="translate(146.681 88.8)" fill="#ccc"/>
    <path id="Caminho_39" data-name="Caminho 39" d="M-131.788-77.436h-6.506a.439.439,0,0,0-.465.465.439.439,0,0,0,.465.465h6.506a.439.439,0,0,0,.465-.465A.439.439,0,0,0-131.788-77.436Z" transform="translate(146.195 88.729)" fill="#ccc"/>
    <path id="Caminho_40" data-name="Caminho 40" d="M-132.8-75.563h-4.275a.439.439,0,0,0-.465.465.439.439,0,0,0,.465.465h4.275a.439.439,0,0,0,.465-.465A.465.465,0,0,0-132.8-75.563Z" transform="translate(146.096 88.576)" fill="#ccc"/>
  </g>
</svg>
